


<svg class="icon icon-cart-empty" xmlns="http://www.w3.org/2000/svg" width="25" height="26" viewBox="0 0 25 26" fill="none">
  <path fill-rule="evenodd" clip-rule="evenodd" d="M0 1.275C0 0.570837 0.570837 0 1.275 0H4.01538C5.49768 0 6.74969 1.09022 6.95988 2.55H23.375C23.7301 2.55 24.0692 2.69813 24.3105 2.9587C24.5518 3.21928 24.6735 3.56869 24.6462 3.92279L24.0377 11.8336C23.8504 14.2692 21.8194 16.15 19.3765 16.15H8.57984L8.7376 17.4752C8.76305 17.689 8.94434 17.85 9.15962 17.85H19.975C20.6792 17.85 21.25 18.4208 21.25 19.125C21.25 19.8292 20.6792 20.4 19.975 20.4H9.15962C7.65261 20.4 6.38363 19.2731 6.20548 17.7767L4.4374 2.92476C4.41195 2.71098 4.23066 2.55 4.01538 2.55H1.275C0.570837 2.55 0 1.97916 0 1.275ZM8.27627 13.6H19.3765C20.4869 13.6 21.4101 12.7451 21.4952 11.638L21.9982 5.1H7.26436L8.27627 13.6Z" fill="#F6F6F6"/>
  <path d="M12.75 23.8C12.75 24.7389 11.9889 25.5 11.05 25.5C10.1111 25.5 9.35 24.7389 9.35 23.8C9.35 22.8611 10.1111 22.1 11.05 22.1C11.9889 22.1 12.75 22.8611 12.75 23.8Z" fill="#F6F6F6"/>
  <path d="M21.25 23.8C21.25 24.7389 20.4889 25.5 19.55 25.5C18.6111 25.5 17.85 24.7389 17.85 23.8C17.85 22.8611 18.6111 22.1 19.55 22.1C20.4889 22.1 21.25 22.8611 21.25 23.8Z" fill="#F6F6F6"/>
</svg>