<svg class="icon icon-account" xmlns="http://www.w3.org/2000/svg" width="21" height="24" viewBox="0 0 21 24" fill="none">
  <path fill-rule="evenodd" clip-rule="evenodd" d="M10.3545 0C7.0684 0 4.4045 2.66391 4.4045 5.95C4.4045 9.23609 7.0684 11.9 10.3545 11.9C13.6406 11.9 16.3045 9.23609 16.3045 5.95C16.3045 2.66391 13.6406 0 10.3545 0ZM6.9545 5.95C6.9545 4.07223 8.47673 2.55 10.3545 2.55C12.2323 2.55 13.7545 4.07223 13.7545 5.95C13.7545 7.82777 12.2323 9.35 10.3545 9.35C8.47673 9.35 6.9545 7.82777 6.9545 5.95Z" fill="#F6F6F6"/>
  <path fill-rule="evenodd" clip-rule="evenodd" d="M19.6772 19.0855C17.7963 15.6998 14.2276 13.6 10.3545 13.6C6.48137 13.6 2.9127 15.6998 1.03175 19.0855L0.289433 20.4217C-0.552605 21.9374 0.543372 23.8 2.27724 23.8H18.4317C20.1656 23.8 21.2616 21.9374 20.4195 20.4217L19.6772 19.0855ZM3.26085 20.3239C4.69206 17.7477 7.40745 16.15 10.3545 16.15C13.3015 16.15 16.0169 17.7477 17.4481 20.3239L17.9626 21.25H2.74636L3.26085 20.3239Z" fill="#F6F6F6"/>
</svg>